<svg width="32" height="32" viewBox="0 0 32 32" fill="none" xmlns="http://www.w3.org/2000/svg">
<path d="M22.9999 20.515C22.9999 15.9 19.2199 15.374 16.1829 14.952C12.8729 14.492 10.9999 14.092 10.9999 11.242C10.9999 8.85 13.5069 8 15.6539 8C16.7239 7.96544 17.7867 8.18569 18.7548 8.64262C19.7229 9.09954 20.5685 9.78004 21.2219 10.628L22.7779 9.372C22.0782 8.47217 21.2075 7.71952 20.2159 7.1573C19.2243 6.59509 18.1314 6.23441 16.9999 6.096V3H14.9999V6.022C11.3849 6.242 8.99992 8.282 8.99992 11.242C8.99992 15.972 12.8299 16.505 15.9069 16.932C19.1599 17.385 20.9999 17.774 20.9999 20.515C20.9999 23.547 17.8669 24 15.9999 24C12.5699 24 11.1219 23.036 9.77792 21.372L8.22192 22.628C9.01468 23.6727 10.04 24.5182 11.2166 25.0975C12.3932 25.6767 13.6885 25.9737 14.9999 25.965V29H16.9999V25.955C20.7259 25.651 22.9999 23.628 22.9999 20.515Z" fill="#263238" fill-opacity="0.4"/>
</svg>
