<svg width="32" height="32" viewBox="0 0 32 32" fill="none" xmlns="http://www.w3.org/2000/svg">
<path d="M9.33337 24V9.40267C9.33328 9.09243 9.43623 8.79095 9.62607 8.54558C9.8159 8.30021 10.0819 8.12483 10.3822 8.04701C10.6825 7.96918 11.0001 7.99331 11.2853 8.11561C11.5704 8.2379 11.8068 8.45143 11.9574 8.72267L20.0427 23.2773C20.1933 23.5486 20.4297 23.7621 20.7148 23.8844C20.9999 24.0067 21.3176 24.0308 21.6179 23.953C21.9182 23.8752 22.1842 23.6998 22.374 23.4544C22.5638 23.209 22.6668 22.9076 22.6667 22.5973V8" stroke="#263238" stroke-opacity="0.4" stroke-width="2" stroke-linecap="round" stroke-linejoin="round"/>
<path d="M6.66669 13.3333H25.3334" stroke="#263238" stroke-opacity="0.4" stroke-width="2" stroke-linecap="round" stroke-linejoin="round"/>
<path d="M6.66669 18.6667H25.3334" stroke="#263238" stroke-opacity="0.4" stroke-width="2" stroke-linecap="round" stroke-linejoin="round"/>
</svg>
